:FULLY-SPECIFIED
:DEGREES
2197
root 4.52546 16.4017 -1.61357 -72.9339 -85.9769 89.136
lowerback -8.0525 -2.47657 -2.30486
upperback -3.70388 -3.2389 0.140076
thorax 0.811714 -1.6437 1.15409
lowerneck -15.5188 0.530396 0.93464
upperneck 36.1611 -0.786787 -0.440038
head 15.2403 -0.739326 -0.616044
rclavicle 1.66979e-014 -1.51076e-014
rhumerus -42.6459 -11.345 -74.1247
rradius 29.659
rwrist 21.062
rhand -25.1008 -5.11045
rfingers 7.12502
rthumb 1.41423 -35.0855
lclavicle 1.66979e-014 -1.51076e-014
lhumerus -28.1679 -14.7931 86.7914
lradius 44.1383
lwrist -3.16088
lhand -36.7908 -2.78618
lfingers 7.12502
lthumb -9.87277 26.9623
rfemur -40.1921 11.0409 13.7252
rtibia 18.6034
rfoot -5.76225 -23.0835
rtoes -8.06251
lfemur -5.43156 -10.5899 -32.2562
ltibia 15.6907
lfoot -14.7054 16.961
ltoes -20.5839
2198
root 4.50247 16.4197 -1.62901 -69.2733 -86.0292 85.5098
lowerback -8.13276 -2.5009 -2.19861
upperback -3.74632 -3.27992 0.21745
thorax 0.812487 -1.66508 1.16811
lowerneck -15.5647 0.488634 0.931773
upperneck 36.3097 -0.862749 -0.445751
head 15.3226 -0.775532 -0.634186
rclavicle -7.15625e-015 1.23246e-014
rhumerus -42.6963 -11.5539 -73.8882
rradius 29.553
rwrist 20.8316
rhand -25.1593 -5.19318
rfingers 7.12502
rthumb 1.35774 -35.1686
lclavicle -7.15625e-015 1.23246e-014
lhumerus -28.4686 -14.1738 87.0037
lradius 43.7142
lwrist -3.4559
lhand -36.7447 -2.58722
lfingers 7.12502
lthumb -9.82831 27.1634
rfemur -39.9964 11.1015 13.8257
rtibia 18.9513
rfoot -5.42856 -23.4741
rtoes -9.60221
lfemur -5.27709 -10.0037 -32.0074
ltibia 16.3079
lfoot -14.3841 15.8996
ltoes -21.9847
2199
root 4.48146 16.4347 -1.64196 -67.6818 -86.1165 84.1063
lowerback -8.38073 -2.4664 -2.07208
upperback -3.80681 -3.24291 0.305272
thorax 0.883461 -1.64902 1.18146
lowerneck -15.5282 0.454038 0.942432
upperneck 36.3061 -0.91984 -0.442709
head 15.3117 -0.797527 -0.644254
rclavicle -7.95139e-016 7.95139e-015
rhumerus -42.6524 -11.8389 -73.6113
rradius 29.3271
rwrist 20.9196
rhand -25.252 -5.2477
rfingers 7.12502
rthumb 1.26815 -35.2237
lclavicle -7.95139e-016 7.95139e-015
lhumerus -28.7813 -13.5708 87.2372
lradius 43.2695
lwrist -3.53562
lhand -36.7263 -2.65348
lfingers 7.12502
lthumb -9.81062 27.098
rfemur -39.9071 11.0779 14.0036
rtibia 19.1343
rfoot -4.61658 -23.4042
rtoes -10.5816
lfemur -5.54922 -9.32562 -31.7365
ltibia 17.3651
lfoot -14.1813 14.8513
ltoes -23.2692
2200
root 4.44943 16.4542 -1.65805 -62.3043 -86.1405 78.4939
lowerback -8.27858 -2.50106 -1.89894
upperback -3.72447 -3.2994 0.348756
thorax 0.907889 -1.6773 1.1266
lowerneck -15.5636 0.389526 0.97809
upperneck 36.2796 -1.04424 -0.387728
head 15.3065 -0.834908 -0.648143
rclavicle 2.3059e-014 -1.35174e-014
rhumerus -42.6065 -12.1997 -73.3649
rradius 29.0893
rwrist 21.1283
rhand -25.3244 -5.25055
rfingers 7.12502
rthumb 1.19824 -35.2269
lclavicle 2.3059e-014 -1.35174e-014
lhumerus -29.1915 -13.0198 87.4165
lradius 42.8681
lwrist -3.77627
lhand -36.7466 -2.66224
lfingers 7.12502
lthumb -9.83017 27.0883
rfemur -39.2361 10.9181 14.3665
rtibia 19.4688
rfoot -3.99328 -23.4593
rtoes -10.9504
lfemur -5.47551 -8.5597 -31.425
ltibia 18.7227
lfoot -14.0338 13.5899
ltoes -24.4063
2201
root 4.42159 16.4671 -1.67315 -60.7555 -86.1634 76.8872
lowerback -8.30004 -2.47983 -1.83998
upperback -3.72287 -3.27576 0.415569
thorax 0.921326 -1.66554 1.16352
lowerneck -15.5053 0.332178 0.945946
upperneck 36.2165 -1.12827 -0.35058
head 15.2618 -0.868437 -0.639544
rclavicle 1.90833e-014 9.54166e-015
rhumerus -42.549 -12.413 -73.1759
rradius 28.8934
rwrist 21.1487
rhand -25.2042 -5.39133
rfingers 7.12502
rthumb 1.31431 -35.367
lclavicle 1.90833e-014 9.54166e-015
lhumerus -29.6323 -12.3408 87.6353
lradius 42.3663
lwrist -4.04234
lhand -36.7127 -2.52834
lfingers 7.12502
lthumb -9.7975 27.2237
rfemur -38.7376 10.4571 14.9009
rtibia 19.939
rfoot -3.31253 -22.8854
rtoes -9.63486
lfemur -5.77956 -7.69675 -31.1838
ltibia 20.3339
lfoot -13.7626 12.3628
ltoes -24.8797
2202
root 4.39545 16.4777 -1.6896 -60.8381 -86.0901 76.9196
lowerback -8.30061 -2.43214 -1.89376
upperback -3.73413 -3.20865 0.416033
thorax 0.910485 -1.63143 1.20059
lowerneck -15.4451 0.254358 0.848715
upperneck 36.1691 -1.26634 -0.201832
head 15.2255 -0.918664 -0.582047
rclavicle 7.95139e-016 5.56597e-015
rhumerus -42.5653 -12.6443 -72.9849
rradius 28.7587
rwrist 21.5386
rhand -25.1408 -5.24878
rfingers 7.12502
rthumb 1.37556 -35.2241
lclavicle 7.95139e-016 5.56597e-015
lhumerus -30.1874 -11.7043 87.7931
lradius 41.9896
lwrist -4.29457
lhand -36.4433 -2.59858
lfingers 7.12502
lthumb -9.53754 27.1656
rfemur -38.3156 9.97223 15.328
rtibia 20.5397
rfoot -3.11382 -22.2903
rtoes -7.43589
lfemur -6.2649 -6.66819 -31.0415
ltibia 22.1492
lfoot -13.3051 11.0374
ltoes -26.6002
2203
root 4.36954 16.4901 -1.70614 -62.4642 -86.1146 78.555
lowerback -8.36769 -2.32702 -1.88174
upperback -3.73924 -3.06917 0.424073
thorax 0.93701 -1.56218 1.21239
lowerneck -15.433 0.184481 0.766181
upperneck 36.1312 -1.38698 -0.0761385
head 15.2055 -0.96178 -0.53424
rclavicle -3.18055e-015 1.78906e-014
rhumerus -42.5514 -12.7776 -72.9264
rradius 28.7502
rwrist 21.4953
rhand -25.0685 -5.25611
rfingers 7.12502
rthumb 1.44542 -35.231
lclavicle -3.18055e-015 1.78906e-014
lhumerus -30.7255 -11.2259 87.9519
lradius 41.5973
lwrist -4.4173
lhand -36.6479 -2.67419
lfingers 7.12502
lthumb -9.7349 27.0808
rfemur -37.9992 9.56993 15.8071
rtibia 21.1975
rfoot -3.60824 -21.5782
rtoes -7.19936
lfemur -6.9866 -5.57885 -30.8061
ltibia 24.2318
lfoot -12.9152 9.64429
ltoes -27.101
2204
root 4.34707 16.506 -1.72541 -62.1741 -86.1303 78.1358
lowerback -8.24837 -2.24456 -1.76052
upperback -3.71556 -2.96807 0.364223
thorax 0.883348 -1.51207 1.09704
lowerneck -15.3686 0.108708 0.703162
upperneck 36.0756 -1.56024 0.146447
head 15.1661 -1.01181 -0.457771
rclavicle 6.2816e-014 1.51076e-014
rhumerus -42.5932 -12.9603 -73.0045
rradius 28.8161
rwrist 21.6509
rhand -25.065 -5.303
rfingers 7.12502
rthumb 1.44877 -35.2778
lclavicle 6.2816e-014 1.51076e-014
lhumerus -31.2732 -10.7399 87.9624
lradius 41.2249
lwrist -4.72946
lhand -36.4724 -2.55646
lfingers 7.12502
lthumb -9.5656 27.2064
rfemur -37.5129 9.26926 16.29
rtibia 21.7976
rfoot -3.86325 -21.1747
rtoes -6.79253
lfemur -7.753 -4.47671 -30.4685
ltibia 26.5329
lfoot -12.0982 8.03479
ltoes -27.9463
2205
root 4.3286 16.5186 -1.74501 -62.5932 -85.9741 78.4616
lowerback -8.14031 -2.17561 -1.88688
upperback -3.67801 -2.86578 0.304238
thorax 0.862078 -1.45921 1.11883
lowerneck -15.3879 0.0184338 0.616773
upperneck 36.0468 -1.71519 0.286854
head 15.159 -1.06726 -0.409359
rclavicle 8.74653e-015 3.81667e-014
rhumerus -42.4961 -12.9447 -73.1422
rradius 28.86
rwrist 21.6351
rhand -24.9213 -5.27696
rfingers 7.12502
rthumb 1.58753 -35.2508
lclavicle 8.74653e-015 3.81667e-014
lhumerus -31.8083 -10.2385 88.0407
lradius 40.9186
lwrist -4.86034
lhand -36.4913 -2.72968
lfingers 7.12502
lthumb -9.58386 27.0323
rfemur -37.1055 9.17554 16.3958
rtibia 22.3264
rfoot -3.92122 -21.2695
rtoes -5.57923
lfemur -8.73511 -3.5027 -30.2614
ltibia 29.0402
lfoot -10.8832 6.27098
ltoes -28.1704
2206
root 4.31114 16.5316 -1.76862 -62.6405 -86.0606 78.3443
lowerback -7.93309 -2.06154 -1.79037
upperback -3.63992 -2.7216 0.282139
thorax 0.777169 -1.38637 1.06235
lowerneck -15.3939 -0.0739111 0.570646
upperneck 36.0616 -1.88925 0.416939
head 15.1699 -1.1283 -0.376493
rclavicle -1.59028e-015 -1.90833e-014
rhumerus -42.4003 -12.9187 -73.3685
rradius 28.8816
rwrist 21.6193
rhand -24.93 -5.2351
rfingers 7.12502
rthumb 1.57918 -35.209
lclavicle -1.59028e-015 -1.90833e-014
lhumerus -32.3553 -9.87813 88.0872
lradius 40.6383
lwrist -4.91935
lhand -36.369 -2.63744
lfingers 7.12502
lthumb -9.46584 27.13
rfemur -36.5371 9.46197 16.6574
rtibia 22.7108
rfoot -4.20704 -21.4715
rtoes -4.16099
lfemur -9.87181 -2.4356 -29.7524
ltibia 31.8125
lfoot -9.36145 4.50315
ltoes -28.215
